<mxfile host="app.diagrams.net" modified="2024-06-22T19:20:06.523Z" agent="Mozilla/5.0 (Macintosh; Intel Mac OS X 10_15_7) AppleWebKit/605.1.15 (KHTML, like Gecko) Version/16.6 Safari/605.1.15" version="24.6.2" etag="wBnWGqQrlpfKYq_T8Mv-" type="github">
  <diagram name="Page-1" id="-NTVVFN6VWJk1oYq8XKt">
    <mxGraphModel>
      <root>
        <mxCell id="0" />
        <mxCell id="1" parent="0" />
      </root>
    </mxGraphModel>
  </diagram>
</mxfile>
